<?xml version="1.0" encoding="utf-8"?>
<!-- Generator: Adobe Illustrator 22.1.0, SVG Export Plug-In . SVG Version: 6.00 Build 0)  -->
<svg version="1.1" id="Layer_1" xmlns="http://www.w3.org/2000/svg" xmlns:xlink="http://www.w3.org/1999/xlink" x="0px" y="0px"
	 viewBox="0 0 486.5 224.1" style="enable-background:new 0 0 486.5 224.1;" xml:space="preserve">
<style type="text/css">
	.st0{fill:#FF9900;}
</style>
<g id="Layer_2_1_">
	<g id="Layer_1-2">
		<path d="M184.7,0h66.7l124,224.1h-66.7L184.7,0L184.7,0z"/>
		<path class="st0" d="M375.4,0h-66.7l-124,223.9h66.7L375.4,0z"/>
		<g>
			<path d="M40.2,52c11.9-0.1,23.2,4.7,31.4,13.2c8.5,8.3,13.2,19.7,13.1,31.6c0.2,11.8-4.5,23.2-13,31.5
				c-8.2,8.5-19.5,13.4-31.3,13.3H37c-2.2,0-4.4-0.8-5.9-2.4c-1.6-1.5-2.4-3.6-2.4-5.8c0-4.6,3.6-8.3,8.2-8.3c0,0,0.1,0,0.1,0h3.1
				c7.5,0,14.6-3.1,19.8-8.4c11-11,11-28.8,0-39.8c-5.2-5.4-12.3-8.5-19.8-8.4H16.5v104.1c0,2.2-0.8,4.4-2.4,5.9
				c-1.5,1.6-3.6,2.4-5.8,2.4c-2.2,0-4.4-0.8-5.9-2.4C0.8,177,0,174.9,0,172.6V60.3c0-2.2,0.8-4.3,2.4-5.8C4,52.9,6.1,52,8.3,52
				H40.2z M117.2,68.6v39.4h44.3c4.5,0,8.2,3.7,8.2,8.2c0,2.2-0.8,4.4-2.4,5.9c-1.5,1.6-3.6,2.4-5.8,2.4h-44.3v39.9h57
				c4.5,0,8.2,3.7,8.2,8.2c0,2.2-0.8,4.4-2.4,5.9c-1.5,1.6-3.6,2.4-5.8,2.4H109c-4.6,0-8.3-3.6-8.3-8.2c0,0,0-0.1,0-0.1V60.3
				c0-2.2,0.8-4.3,2.4-5.8c1.5-1.6,3.7-2.5,5.9-2.4h65.2c4.5,0,8.2,3.7,8.2,8.2c0,2.2-0.8,4.4-2.4,5.9c-1.5,1.6-3.6,2.4-5.8,2.4
				H117.2z"/>
		</g>
		<g>
			<path d="M380,180.2c-3.9-1.8-5.6-6.4-3.8-10.3l47.6-105.9c1.2-2.9,4.1-4.8,7.2-4.6c3.1-0.1,5.9,1.7,7.1,4.6l47.7,105.9
				c0.8,1.9,0.9,4,0.2,5.9c-1.5,4.1-6.1,6.1-10.1,4.6c-1.9-0.7-3.5-2.2-4.4-4.1l-8.1-17.9h-45.5c-4.3,0-7.8-3.4-7.8-7.7
				c0,0,0-0.1,0-0.1c0-2.1,0.8-4,2.3-5.5c1.5-1.5,3.5-2.3,5.6-2.3h38.4L431,86.3l-40.6,90C388.6,180.3,383.9,182,380,180.2
				L380,180.2z"/>
		</g>
	</g>
</g>
</svg>
