<svg xmlns="http://www.w3.org/2000/svg" viewBox="0 0 486.5 224.106"><defs><style>.cls-1{fill:#fff}.cls-3{isolation:isolate}</style></defs><g id="Layer_2" data-name="Layer 2"><g id="Layer_1-2" data-name="Layer 1"><path class="cls-1" d="M184.7 0h66.662L375.36 224.106h-66.663L184.699 0z"/><path d="M375.36 0h-66.663L184.699 223.878h66.663L375.36 0z" fill="#f90"/><g class="cls-3"><path class="cls-1" d="M40.234 52.034a43.035 43.035 0 0 1 31.433 13.249 43.282 43.282 0 0 1 13.058 31.626 43.335 43.335 0 0 1-12.96 31.53 43.257 43.257 0 0 1-31.337 13.346h-3.385a8.022 8.022 0 0 1-5.9-2.417 7.912 7.912 0 0 1-2.418-5.804 8.254 8.254 0 0 1 8.318-8.316h3.095a27.71 27.71 0 0 0 19.827-8.414 28.255 28.255 0 0 0 0-39.85 27.209 27.209 0 0 0-19.827-8.413h-23.6v104.067a8.031 8.031 0 0 1-2.417 5.902 7.922 7.922 0 0 1-5.803 2.417 8.033 8.033 0 0 1-5.9-2.417A8.027 8.027 0 0 1 0 172.638V60.255a7.912 7.912 0 0 1 2.417-5.804 8.033 8.033 0 0 1 5.9-2.417h31.917zM117.226 68.571v39.365h44.298a8.256 8.256 0 0 1 8.22 8.22 8.027 8.027 0 0 1-2.418 5.9 7.909 7.909 0 0 1-5.802 2.417h-44.298v39.944h56.968a8.26 8.26 0 0 1 8.22 8.221 8.033 8.033 0 0 1-2.418 5.902 7.918 7.918 0 0 1-5.802 2.417h-65.188a8.254 8.254 0 0 1-8.318-8.319V60.255a7.912 7.912 0 0 1 2.417-5.804 8.033 8.033 0 0 1 5.9-2.417h65.189a8.256 8.256 0 0 1 8.22 8.22 8.031 8.031 0 0 1-2.418 5.9 7.909 7.909 0 0 1-5.803 2.417z"/></g><g class="cls-3"><path class="cls-1" d="M379.96 180.228a7.866 7.866 0 0 1-3.826-10.294l47.643-105.853a7.225 7.225 0 0 1 7.197-4.555 7.374 7.374 0 0 1 7.105 4.555l47.735 105.853a7.707 7.707 0 0 1 .182 5.922 7.848 7.848 0 0 1-14.484.455l-8.108-17.946h-45.457a7.776 7.776 0 0 1-7.834-7.834 7.453 7.453 0 0 1 2.277-5.466 7.562 7.562 0 0 1 5.557-2.277h38.443l-25.416-56.48-40.629 90.003a7.864 7.864 0 0 1-10.385 3.917z"/></g></g></g></svg>