<svg xmlns="http://www.w3.org/2000/svg" viewBox="0 0 388.89 389.77"><defs><style>.cls-1{fill:none;stroke:#333;stroke-miterlimit:10;stroke-width:2.5px}.cls-2{fill:#333}.cls-3{fill:#f90}</style></defs><g id="Layer_2" data-name="Layer 2"><g id="Layer_2-2" data-name="Layer 2"><path class="cls-1" d="M193.98 1.37v387M193.98 1.37l-136.5 328.5M193.98 1.37l133.5 328.5M57.48 329.87h270M57.48 58.87h271M57.48 329.87v-271M327.48 329.87l1-271M193.98 1.37L1.48 195.87M1.48 195.87h386M193.98 1.37l193.5 194.5M1.48 195.87l56 134M327.48 329.87l60-134M328.48 58.87l59 137M193.98 1.37l134.5 57.5M57.48 58.87l136.5-57.5M1.48 195.87l56-137M57.48 329.87l136.5 58.5M327.48 329.87l-133.5 58.5M57.48 58.87l330 137M193.98 388.37L57.48 58.87M328.48 58.87l-327 137M57.48 58.87l270 271M1.48 195.87l326 134M57.48 329.87l330-134M328.48 58.87l-271 271M1.48 195.87l192.5 192.5M387.48 195.87l-193.5 192.5M328.48 58.87l-134.5 329.5"/><path class="cls-2" d="M385 192a3.87 3.87 0 1 0 3.87 3.87A3.86 3.86 0 0 0 385 192zM325.74 324.25a3.87 3.87 0 1 0 3.86 3.86 3.86 3.86 0 0 0-3.86-3.86z"/><circle class="cls-2" cx="193.98" cy="385.9" r="3.87"/><path class="cls-2" d="M59.14 324.34a3.87 3.87 0 1 0 3.86 3.87 3.87 3.87 0 0 0-3.86-3.87zM3.87 192a3.87 3.87 0 1 0 3.87 3.87A3.87 3.87 0 0 0 3.87 192zM59.22 56.75a3.87 3.87 0 1 0 3.87 3.86 3.86 3.86 0 0 0-3.87-3.86zM194 0a3.87 3.87 0 1 0 3.87 3.87A3.87 3.87 0 0 0 194 0zM327.16 56.92a3.87 3.87 0 1 0 3.84 3.87 3.87 3.87 0 0 0-3.84-3.87z"/></g><g id="Layer_1-2" data-name="Layer 1"><circle class="cls-3" cx="125.98" cy="31.37" r="14"/><circle class="cls-3" cx="260.98" cy="31.37" r="14"/><circle class="cls-3" cx="125.98" cy="359.37" r="14"/><circle class="cls-3" cx="29.98" cy="263.37" r="14"/><circle class="cls-3" cx="29.98" cy="127.37" r="14"/><circle class="cls-3" cx="356.98" cy="263.37" r="14"/><circle class="cls-3" cx="356.98" cy="127.37" r="14"/><circle class="cls-3" cx="260.98" cy="359.37" r="14"/><circle cx="193.67" cy="194.33" r="50.96" id="BG"/><g id="X"><path fill="#fff" d="M169.75 169.07h15.95l29.69 53.62h-15.96l-29.68-53.62z"/><path class="cls-3" d="M215.39 169.07h-15.96l-29.68 53.62h15.95l29.69-53.62z"/></g></g></g></svg>