<?xml version="1.0" encoding="utf-8"?>
<!-- Generator: Adobe Illustrator 22.1.0, SVG Export Plug-In . SVG Version: 6.00 Build 0)  -->
<svg version="1.1" id="Layer_1" xmlns="http://www.w3.org/2000/svg" xmlns:xlink="http://www.w3.org/1999/xlink" x="0px" y="0px"
	 viewBox="0 0 612 792" style="enable-background:new 0 0 612 792;" xml:space="preserve">
<style type="text/css">
	.st0{fill:#232323;}
	.st1{opacity:0.19;}
	.st2{opacity:0.19;fill:#FFFFFF;}
	.st3{opacity:0.47;fill:#FF9900;}
	.st4{fill:#FFFFFF;}
	.st5{fill:#FF9900;}
	.st6{font-family:'Copperplate';}
	.st7{font-size:50px;}
</style>
<rect class="st0" width="612" height="792"/>
<circle class="st1" cx="476.1" cy="134.1" r="202.1"/>
<path class="st2" d="M381.1,33.9h63.3l117.8,212.7h-63.3L381.1,33.9z"/>
<path class="st3" d="M562.3,33.9h-63.3L381.1,246.5h63.3L562.3,33.9z"/>
<g id="Layer_2_1_">
	<g id="Layer_1-2">
		<path class="st4" d="M274.9,336h35.7L377,456h-35.7L274.9,336L274.9,336z"/>
		<path class="st5" d="M377,336h-35.7l-66.4,119.9h35.7L377,336z"/>
		<g>
			<path class="st4" d="M197.5,363.9c6.3-0.1,12.4,2.5,16.8,7.1c4.6,4.4,7.1,10.6,7,16.9c0.1,6.3-2.4,12.4-6.9,16.9
				c-4.4,4.6-10.4,7.2-16.8,7.1h-1.8c-1.2,0-2.3-0.4-3.2-1.3c-0.8-0.8-1.3-1.9-1.3-3.1c0-2.4,1.9-4.4,4.4-4.5c0,0,0,0,0.1,0h1.7
				c4,0,7.8-1.6,10.6-4.5c5.9-5.9,5.9-15.4,0-21.3c-2.8-2.9-6.6-4.5-10.6-4.5h-12.6v55.7c0,1.2-0.4,2.3-1.3,3.2
				c-0.8,0.8-1.9,1.3-3.1,1.3c-1.2,0-2.3-0.4-3.2-1.3c-0.8-0.8-1.3-2-1.3-3.2v-60.2c0-1.2,0.5-2.3,1.3-3.1c0.8-0.8,2-1.3,3.2-1.3
				H197.5z M238.8,372.7v21.1h23.7c2.4,0,4.4,2,4.4,4.4c0,1.2-0.4,2.3-1.3,3.2c-0.8,0.8-1.9,1.3-3.1,1.3h-23.7V424h30.5
				c2.4,0,4.4,2,4.4,4.4c0,1.2-0.4,2.3-1.3,3.2c-0.8,0.8-1.9,1.3-3.1,1.3h-34.9c-2.4,0-4.4-1.9-4.5-4.4c0,0,0,0,0-0.1v-60.2
				c0-1.2,0.5-2.3,1.3-3.1c0.8-0.8,2-1.3,3.2-1.3h34.9c2.4,0,4.4,2,4.4,4.4c0,1.2-0.4,2.3-1.3,3.2c-0.8,0.8-1.9,1.3-3.1,1.3H238.8z"
				/>
		</g>
		<g>
			<path class="st4" d="M379.5,432.5c-2.1-1-3-3.4-2-5.5l25.5-56.7c0.6-1.6,2.2-2.6,3.9-2.4c1.7-0.1,3.2,0.9,3.8,2.4l25.6,56.7
				c0.5,1,0.5,2.1,0.1,3.2c-0.8,2.2-3.3,3.3-5.4,2.4c-1-0.4-1.9-1.2-2.3-2.2l-4.3-9.6h-24.3c-2.3,0-4.2-1.8-4.2-4.1c0,0,0,0,0-0.1
				c0-1.1,0.4-2.2,1.2-2.9c0.8-0.8,1.9-1.2,3-1.2h20.6l-13.6-30.2L385,430.4C384.1,432.5,381.6,433.5,379.5,432.5L379.5,432.5z"/>
		</g>
	</g>
</g>
<text transform="matrix(1 0 0 1 160.3262 715.4004)" class="st4 st6 st7">Whitepaper</text>
</svg>
